<?xml version="1.0" encoding="utf-8"?>
<!-- Generator: Adobe Illustrator 24.1.0, SVG Export Plug-In . SVG Version: 6.00 Build 0)  -->
<svg version="1.1" id="Capa_1" xmlns="http://www.w3.org/2000/svg" xmlns:xlink="http://www.w3.org/1999/xlink" x="0px" y="0px"
	 viewBox="0 0 179 32" style="enable-background:new 0 0 179 32;" xml:space="preserve">
<style type="text/css">
	.st0{fill:#146285;}
	.st1{fill:#FFFFFF;}
</style>
<path class="st0" d="M0.8,3.9c-0.3-0.3-0.4-0.6-0.4-1c0-0.4,0.1-0.7,0.4-1s0.6-0.4,1.1-0.4s0.8,0.1,1.1,0.4c0.3,0.3,0.4,0.6,0.4,1
	c0,0.4-0.1,0.8-0.4,1.1C2.6,4.2,2.3,4.3,1.8,4.3S1.1,4.2,0.8,3.9z M0.8,7.7h2.1v15.2H0.8V7.7z"/>
<path class="st0" d="M23.4,9.2c1.1,1.1,1.7,2.7,1.7,4.8v8.8h-2.1v-8.6c0-1.6-0.4-2.8-1.2-3.6c-0.8-0.8-1.9-1.2-3.4-1.2
	c-1.6,0-2.9,0.5-3.9,1.5c-1,1-1.4,2.3-1.4,4v8h-2.1V7.6h2v2.8c0.6-0.9,1.3-1.6,2.3-2.2c1-0.5,2.1-0.8,3.5-0.8
	C20.8,7.5,22.3,8.1,23.4,9.2z"/>
<path class="st0" d="M35.4,21.9c-1.2-0.7-2.1-1.6-2.8-2.8c-0.7-1.2-1-2.5-1-4c0-1.5,0.3-2.8,1-4c0.7-1.2,1.6-2.1,2.8-2.7
	c1.2-0.7,2.5-1,4-1c1.3,0,2.5,0.3,3.5,0.8c1,0.5,1.8,1.3,2.4,2.2l-1.5,1c-0.5-0.8-1.1-1.3-1.9-1.7c-0.8-0.4-1.6-0.6-2.5-0.6
	c-1.1,0-2.1,0.2-3,0.7c-0.9,0.5-1.6,1.2-2.1,2.1c-0.5,0.9-0.7,1.9-0.7,3.1c0,1.2,0.2,2.2,0.7,3.1c0.5,0.9,1.2,1.6,2.1,2.1
	c0.9,0.5,1.9,0.7,3,0.7c0.9,0,1.7-0.2,2.5-0.5c0.8-0.4,1.4-0.9,1.9-1.7l1.5,1c-0.6,1-1.4,1.7-2.5,2.2c-1,0.5-2.2,0.8-3.5,0.8
	C37.9,22.9,36.6,22.6,35.4,21.9z"/>
<path class="st0" d="M54,21.9c-1.2-0.7-2.1-1.6-2.8-2.8c-0.7-1.2-1-2.5-1-4c0-1.5,0.3-2.8,1-4c0.7-1.2,1.6-2.1,2.8-2.7
	c1.2-0.7,2.5-1,4-1c1.5,0,2.8,0.3,4,1C63,9.1,64,10,64.6,11.2c0.7,1.2,1,2.5,1,4c0,1.5-0.3,2.8-1,4c-0.7,1.2-1.6,2.1-2.8,2.8
	c-1.2,0.7-2.5,1-4,1C56.4,22.9,55.1,22.6,54,21.9z M60.8,20.3c0.9-0.5,1.5-1.2,2-2.1c0.5-0.9,0.7-1.9,0.7-3.1s-0.2-2.2-0.7-3.1
	c-0.5-0.9-1.1-1.6-2-2.1C60,9.5,59,9.2,57.9,9.2c-1.1,0-2,0.2-2.9,0.7c-0.9,0.5-1.5,1.2-2,2.1c-0.5,0.9-0.7,1.9-0.7,3.1
	c0,1.2,0.2,2.2,0.7,3.1c0.5,0.9,1.2,1.6,2,2.1c0.9,0.5,1.8,0.7,2.9,0.7C59,21.1,60,20.8,60.8,20.3z"/>
<path class="st0" d="M76.3,8.3c1-0.5,2.1-0.8,3.5-0.8v2l-0.5,0c-1.6,0-2.8,0.5-3.8,1.5c-0.9,1-1.4,2.4-1.4,4.1v7.7h-2.1V7.6h2v3
	C74.6,9.6,75.3,8.8,76.3,8.3z"/>
<path class="st0" d="M97.7,8.4c1.2,0.6,2.1,1.6,2.7,2.7c0.7,1.2,1,2.5,1,4c0,1.5-0.3,2.9-1,4c-0.7,1.2-1.6,2.1-2.7,2.7
	c-1.1,0.6-2.4,1-3.9,1c-1.2,0-2.3-0.3-3.3-0.8c-1-0.5-1.8-1.3-2.4-2.2v8.5H86V7.6h2v3c0.6-1,1.4-1.8,2.4-2.3c1-0.5,2.2-0.8,3.4-0.8
	C95.3,7.5,96.6,7.8,97.7,8.4z M96.6,20.3c0.9-0.5,1.5-1.2,2-2.1c0.5-0.9,0.7-1.9,0.7-3.1s-0.2-2.2-0.7-3.1c-0.5-0.9-1.2-1.6-2-2.1
	c-0.9-0.5-1.8-0.8-2.9-0.8c-1.1,0-2,0.3-2.9,0.8c-0.9,0.5-1.5,1.2-2,2.1c-0.5,0.9-0.7,1.9-0.7,3.1s0.2,2.2,0.7,3.1
	c0.5,0.9,1.2,1.6,2,2.1c0.9,0.5,1.8,0.7,2.9,0.7C94.8,21.1,95.7,20.8,96.6,20.3z"/>
<path class="st0" d="M110.3,21.9c-1.2-0.7-2.1-1.6-2.8-2.8c-0.7-1.2-1-2.5-1-4c0-1.5,0.3-2.8,1-4c0.7-1.2,1.6-2.1,2.8-2.7
	c1.2-0.7,2.5-1,4-1c1.5,0,2.8,0.3,4,1c1.2,0.7,2.1,1.6,2.8,2.7c0.7,1.2,1,2.5,1,4c0,1.5-0.3,2.8-1,4c-0.7,1.2-1.6,2.1-2.8,2.8
	c-1.2,0.7-2.5,1-4,1C112.8,22.9,111.4,22.6,110.3,21.9z M117.1,20.3c0.9-0.5,1.5-1.2,2-2.1c0.5-0.9,0.7-1.9,0.7-3.1
	s-0.2-2.2-0.7-3.1c-0.5-0.9-1.1-1.6-2-2.1c-0.9-0.5-1.8-0.7-2.9-0.7c-1.1,0-2,0.2-2.9,0.7s-1.5,1.2-2,2.1c-0.5,0.9-0.7,1.9-0.7,3.1
	c0,1.2,0.2,2.2,0.7,3.1c0.5,0.9,1.2,1.6,2,2.1c0.9,0.5,1.8,0.7,2.9,0.7C115.3,21.1,116.3,20.8,117.1,20.3z"/>
<path class="st0" d="M132,8.3c1-0.5,2.1-0.8,3.5-0.8v2l-0.5,0c-1.6,0-2.8,0.5-3.8,1.5c-0.9,1-1.4,2.4-1.4,4.1v7.7h-2.1V7.6h2v3
	C130.3,9.6,131.1,8.8,132,8.3z"/>
<path class="st0" d="M170.4,30.4h-31.5V8.6c0-4.7,3.8-8.6,8.6-8.6h23c4.7,0,8.6,3.8,8.6,8.6v13.3C179,26.5,175.2,30.4,170.4,30.4z"
	/>
<path class="st1" d="M156.1,9c1.1,1,1.6,2.5,1.6,4.4v9.5h-2v-2.4c-0.5,0.8-1.1,1.4-2,1.9c-0.9,0.4-2,0.7-3.2,0.7
	c-1.7,0-3.1-0.4-4.1-1.2c-1-0.8-1.5-1.9-1.5-3.2c0-1.3,0.5-2.3,1.4-3.1c0.9-0.8,2.4-1.2,4.5-1.2h4.9v-0.9c0-1.3-0.4-2.3-1.1-3
	c-0.7-0.7-1.8-1-3.2-1c-1,0-1.9,0.2-2.8,0.5c-0.9,0.3-1.7,0.8-2.3,1.3l-0.9-1.5c0.8-0.7,1.7-1.2,2.8-1.5c1.1-0.4,2.2-0.5,3.4-0.5
	C153.5,7.5,155.1,8,156.1,9z M153.8,20.6c0.8-0.5,1.5-1.3,1.9-2.3v-2.5h-4.8c-2.6,0-3.9,0.9-3.9,2.7c0,0.9,0.3,1.6,1,2.1
	c0.7,0.5,1.6,0.8,2.8,0.8C152,21.4,153,21.1,153.8,20.6z"/>
<path class="st1" d="M168.8,8.2c1-0.5,2.1-0.8,3.6-0.8v2l-0.5,0c-1.6,0-2.9,0.5-3.8,1.5c-0.9,1-1.4,2.4-1.4,4.2v7.8h-2.1V7.6h2v3
	C167.1,9.5,167.9,8.8,168.8,8.2z"/>
</svg>
