<svg id="Capa_1" data-name="Capa 1" xmlns="http://www.w3.org/2000/svg" viewBox="0 0 19.5 13.18"><defs><style>.cls-1{fill:#a5d3e7;}.cls-2{fill:none;stroke:#fff;stroke-miterlimit:10;stroke-width:0.85px;}.cls-3{fill:#fff;}</style></defs><path class="cls-1" d="M0,9.46V3.72A3.64,3.64,0,0,1,3.6,0H15.94a3.63,3.63,0,0,1,3.56,3.7v9.45H3.6A3.65,3.65,0,0,1,0,9.46Z"/><path class="cls-2" d="M7.76,6.13h5.08"/><path class="cls-2" d="M10.3,6V7.58L7.92,9.81,10.3,7.58l2.37,2.23"/><path class="cls-3" d="M10.23,5.38a.78.78,0,0,0,.8-.75.8.8,0,0,0-1.6,0A.78.78,0,0,0,10.23,5.38Z"/><path class="cls-3" d="M9.7,8.14a2.38,2.38,0,0,0,.6-1.69Z"/><path class="cls-2" d="M9.7,8.14a2.38,2.38,0,0,0,.6-1.69"/><path class="cls-3" d="M10.9,8.14a2.43,2.43,0,0,1-.6-1.69Z"/><path class="cls-2" d="M10.9,8.14a2.43,2.43,0,0,1-.6-1.69"/><path class="cls-3" d="M11,8.27a1,1,0,0,0-1.47,0Z"/><path class="cls-2" d="M11,8.27a1,1,0,0,0-1.47,0"/><path class="cls-3" d="M11.32,6.13s-1.09,0-1,1Z"/><path class="cls-2" d="M11.32,6.13s-1.09,0-1,1"/><path class="cls-3" d="M9.27,6.13s1.09,0,1,1Z"/><path class="cls-2" d="M9.27,6.13s1.09,0,1,1"/></svg>