<svg id="Capa_1" data-name="Capa 1" xmlns="http://www.w3.org/2000/svg" xmlns:xlink="http://www.w3.org/1999/xlink" viewBox="0 0 19.48 13.16"><defs><style>.cls-1{fill:none;}.cls-2{clip-path:url(#clip-path);}.cls-3{fill:#f68c0f;}.cls-4{fill:#fff;stroke:#fff;stroke-miterlimit:10;stroke-width:0.85px;}</style><clipPath id="clip-path" transform="translate(0 -0.01)"><rect class="cls-1" y="0.01" width="19.48" height="13.16"/></clipPath></defs><g class="cls-2"><path class="cls-3" d="M0,9.46V3.72A3.63,3.63,0,0,1,3.56,0H15.91a3.64,3.64,0,0,1,3.57,3.71v9.45H3.56A3.63,3.63,0,0,1,0,9.46Z" transform="translate(0 -0.01)"/><path class="cls-4" d="M6.32,6.74a.48.48,0,0,1,.5-.49.49.49,0,1,1,0,1A.48.48,0,0,1,6.32,6.74Zm2.82,0a.48.48,0,0,1,.5-.49.49.49,0,1,1,0,1A.48.48,0,0,1,9.14,6.74Zm2.82,0a.48.48,0,0,1,.5-.49.49.49,0,1,1,0,1A.48.48,0,0,1,12,6.74Z" transform="translate(0 -0.01)"/></g></svg>