<svg width="1910" height="1080" viewBox="0 0 1910 1080" fill="none" xmlns="http://www.w3.org/2000/svg">
<rect width="1910" height="1080" fill="#0D4A64"/>
<path d="M586.726 149.362C585.58 148.209 585 146.77 585 145.044C585 143.318 585.573 141.879 586.726 140.726C587.872 139.573 589.311 139 591.324 139C593.05 139 594.483 139.573 595.922 140.726C597.068 141.879 597.648 143.318 597.648 145.044C597.648 146.77 597.075 148.209 595.922 149.649C594.776 150.801 593.336 151.374 591.324 151.374C589.598 151.088 588.159 150.515 586.726 149.362ZM587.012 165.188H595.629V229.346H587.012V165.188Z" fill="#F6F6F6"/>
<path d="M671.471 171.513C676.356 176.117 678.655 183.021 678.655 191.937V229.047H670.039V192.797C670.039 186.18 668.313 181.002 665.154 177.55C661.709 174.098 657.111 172.372 650.793 172.372C643.896 172.372 638.438 174.385 634.42 178.416C630.401 182.441 628.389 188.199 628.389 195.389V229.047H619.772V164.889H628.102V176.684C630.401 172.659 633.847 169.78 637.872 167.475C642.183 165.462 646.775 164.31 652.526 164.31C660.269 164.609 666.587 166.915 671.471 171.513Z" fill="#F6F6F6"/>
<path d="M711.688 225.601C706.803 222.723 702.785 218.984 699.913 214.093C697.04 209.202 695.601 203.451 695.601 197.121C695.601 190.79 697.04 185.326 699.913 180.435C702.785 175.544 706.517 171.519 711.688 168.927C716.572 166.048 722.317 164.902 728.634 164.902C734.092 164.902 738.977 166.054 743.288 168.067C747.6 170.079 751.045 173.245 753.631 177.563L747.313 181.881C745.301 178.715 742.428 176.416 739.27 174.69C736.111 173.251 732.373 172.391 728.641 172.391C724.043 172.391 719.738 173.544 716.286 175.557C712.554 177.569 709.675 180.448 707.669 184.473C705.657 188.211 704.511 192.529 704.511 197.42C704.511 202.311 705.657 206.629 707.669 210.654C709.682 214.393 712.554 217.271 716.286 219.284C720.018 221.296 724.043 222.449 728.641 222.449C732.373 222.449 736.111 221.583 739.27 220.15C742.428 218.711 745.301 216.125 747.313 212.96L753.631 217.278C751.045 221.303 747.6 224.468 743.288 226.774C738.977 228.786 734.099 229.939 728.634 229.939C722.317 229.919 716.859 228.48 711.688 225.601Z" fill="#F6F6F6"/>
<path d="M778.907 225.6C774.022 222.722 770.004 218.983 767.132 214.092C764.26 209.201 762.82 203.45 762.82 197.406C762.82 191.076 764.26 185.612 767.132 180.72C770.004 175.829 773.736 171.804 778.907 169.212C783.792 166.334 789.536 165.187 795.567 165.187C801.598 165.187 807.342 166.627 812.227 169.212C817.111 172.091 821.13 175.829 823.715 180.72C826.588 185.612 828.027 191.362 828.027 197.406C828.027 203.737 826.594 209.201 823.715 214.092C820.843 218.983 817.111 223.008 812.227 225.6C807.342 228.479 801.598 229.918 795.567 229.918C789.536 229.918 784.078 228.479 778.907 225.6ZM807.922 218.983C811.654 216.971 814.239 214.092 816.252 210.067C818.264 206.329 819.41 202.011 819.41 197.12C819.41 192.229 818.264 187.911 816.252 184.172C814.239 180.434 811.367 177.555 807.922 175.256C804.19 173.244 800.165 172.091 795.567 172.091C790.969 172.091 786.95 173.244 783.212 175.256C779.474 177.269 776.895 180.147 774.596 184.172C772.583 187.911 771.437 192.229 771.437 197.12C771.437 202.011 772.583 206.329 774.596 210.067C776.608 213.806 779.48 216.684 783.212 218.983C786.944 220.996 790.969 222.149 795.567 222.149C800.165 222.149 804.19 220.996 807.922 218.983Z" fill="#F6F6F6"/>
<path d="M863.079 168.06C867.097 165.761 871.982 164.895 878.012 164.895V173.238H876C869.396 173.238 863.932 175.25 860.2 179.568C856.468 183.593 854.456 189.637 854.456 197.12V229.632H845.833V165.474H854.162V178.135C856.188 173.238 859.06 170.079 863.079 168.06Z" fill="#F6F6F6"/>
<path d="M942.653 168.64C947.538 171.232 951.27 175.257 954.142 180.148C957.014 185.039 958.16 190.79 958.16 197.121C958.16 203.451 956.727 209.202 954.142 214.093C951.27 218.984 947.538 223.009 942.653 225.601C937.768 228.194 932.311 229.626 926.28 229.626C921.109 229.626 916.517 228.474 912.205 226.461C907.894 224.449 904.735 221.283 901.863 216.965V252.643H893.247V164.895H901.576V177.556C904.162 173.238 907.607 170.073 911.919 167.774C916.23 165.475 921.109 164.322 926.28 164.322C932.604 164.609 938.055 166.048 942.653 168.64ZM938.055 218.984C941.793 216.972 944.659 214.093 946.671 210.068C948.684 206.33 949.83 202.012 949.83 197.121C949.83 192.23 948.684 187.912 946.671 184.173C944.659 180.435 941.787 177.556 938.055 175.257C934.323 173.245 930.298 172.092 925.987 172.092C921.389 172.092 917.37 173.245 913.638 175.257C909.9 177.27 907.321 180.435 905.022 184.173C903.009 187.912 901.863 192.23 901.863 197.121C901.863 202.012 903.009 206.33 905.022 210.068C907.034 213.807 909.906 216.685 913.638 218.984C917.37 220.997 921.395 222.15 925.987 222.15C930.305 222.15 934.323 220.997 938.055 218.984Z" fill="#F6F6F6"/>
<path d="M985.455 225.6C980.571 222.722 976.552 218.983 973.68 214.092C970.808 209.201 969.369 203.45 969.369 197.406C969.369 191.076 970.808 185.612 973.68 180.72C976.552 175.829 980.284 171.804 985.455 169.212C990.34 166.334 996.084 165.187 1002.12 165.187C1008.15 165.187 1013.89 166.627 1018.78 169.212C1023.66 172.091 1027.68 175.829 1030.26 180.72C1033.14 185.612 1034.58 191.362 1034.58 197.406C1034.58 203.737 1033.14 209.201 1030.26 214.092C1027.39 218.983 1023.66 223.008 1018.78 225.6C1013.89 228.479 1008.15 229.918 1002.12 229.918C996.084 229.918 990.34 228.479 985.455 225.6ZM1014.18 218.983C1017.92 216.971 1020.5 214.092 1022.51 210.067C1024.53 206.329 1025.67 202.011 1025.67 197.12C1025.67 192.229 1024.52 187.911 1022.51 184.172C1020.5 180.434 1017.63 177.555 1014.18 175.256C1010.45 173.244 1006.43 172.091 1001.83 172.091C997.231 172.091 993.212 173.244 989.48 175.256C985.742 177.269 983.156 180.147 980.857 184.172C978.845 187.911 977.699 192.229 977.699 197.12C977.699 202.011 978.845 206.329 980.857 210.067C982.87 213.806 985.742 216.684 989.48 218.983C993.212 220.996 997.237 222.149 1001.83 222.149C1006.42 222.149 1010.74 220.996 1014.18 218.983Z" fill="#F6F6F6"/>
<path d="M1069.63 168.06C1073.65 165.761 1078.53 164.895 1084.56 164.895V173.238H1082.55C1075.95 173.238 1070.48 175.25 1066.75 179.568C1063.02 183.593 1061 189.637 1061 197.12V229.632H1052.39V165.474H1060.72V178.135C1062.44 173.238 1065.6 170.079 1069.63 168.06Z" fill="#F6F6F6"/>
<path d="M1251.88 139.469H1133.18C1113.81 139.469 1098.11 155.171 1098.11 174.54V257H1258.88C1278.25 257 1293.96 241.297 1293.96 221.928V181.555C1293.96 158.31 1275.12 139.469 1251.88 139.469Z" fill="#F6F6F6"/>
<path d="M1174.09 216.04H1145.72L1140.25 229.411H1125.54L1152.86 166.426H1166.94L1194.26 229.411H1179.34L1174.09 216.04ZM1169.46 205.04L1159.8 180.884L1150.13 205.04H1169.46Z" fill="#0D4A64"/>
<path d="M1239.66 229.633L1227.89 212.159H1227.26H1214.86V229.633H1200.78V166.647H1227.26C1232.72 166.647 1237.35 167.507 1241.34 169.454C1245.33 171.401 1248.48 173.987 1250.59 177.432C1252.69 180.884 1253.74 184.981 1253.74 189.514C1253.74 194.261 1252.68 198.143 1250.37 201.595C1248.27 205.047 1245.12 207.632 1241.12 209.358L1254.78 229.633H1239.66ZM1236.09 181.314C1233.78 179.373 1230.62 178.507 1226.42 178.507H1214.86V200.507H1226.42C1230.62 200.507 1233.99 199.648 1236.09 197.7C1238.4 195.759 1239.46 193.167 1239.46 189.722C1239.45 186.055 1238.4 183.255 1236.09 181.314Z" fill="#0D4A64"/>
<path d="M1531 568H1606V553H1531V568Z" fill="#CBE5F0"/>
<path d="M1606 539H1531V524H1606V539Z" fill="#CBE5F0"/>
<path d="M1531 509H1561V494H1531V509Z" fill="#CBE5F0"/>
<path fill-rule="evenodd" clip-rule="evenodd" d="M1524.17 449C1511.92 449 1502 459.006 1502 471.35V575.65C1502 587.994 1511.92 598 1524.17 598H1612.83C1625.08 598 1635 587.994 1635 575.65V501.15C1635 472.348 1611.84 449 1583.28 449H1524.17ZM1524.17 463.9H1575.89V501.15H1620.22V575.65C1620.22 579.765 1616.91 583.1 1612.83 583.1H1524.17C1520.09 583.1 1516.78 579.765 1516.78 575.65V471.35C1516.78 467.236 1520.09 463.9 1524.17 463.9ZM1590.67 464.645C1602.57 467.082 1612.4 475.291 1617.15 486.25H1590.67V464.645Z" fill="#CBE5F0"/>
<path d="M974.264 487.001C976.607 487.001 978.877 487.107 981.146 487.39C975.069 459.637 944.28 439 909.28 439C870.034 439 838 464.77 838 497.55C838 516.452 848.727 532.063 866.519 544.134L859.454 564.878L884.349 552.807C893.282 554.506 900.384 556.241 909.317 556.241C911.587 556.241 913.747 556.134 916.017 555.957C914.552 551.391 913.747 546.541 913.747 541.515C913.71 511.461 940.436 487.001 974.264 487.001ZM936.006 468.275C941.314 468.275 944.866 471.708 944.866 476.912C944.866 482.045 941.314 485.479 936.006 485.479C930.588 485.479 925.279 482.045 925.279 476.912C925.316 471.708 930.624 468.275 936.006 468.275ZM886.069 485.479C880.761 485.479 875.343 482.045 875.343 476.912C875.343 471.673 880.761 468.275 886.069 468.275C891.488 468.275 895.002 471.708 895.002 476.912C895.002 482.08 891.488 485.479 886.069 485.479ZM1039.36 540.736C1039.36 513.16 1010.84 490.718 978.803 490.718C944.866 490.718 918.25 513.16 918.25 540.736C918.25 568.312 944.902 590.754 978.803 590.754C985.869 590.754 993.045 588.949 1000.26 587.25L1019.81 597.622L1014.39 580.418C1028.74 570.011 1039.36 556.241 1039.36 540.736ZM959.144 532.063C955.592 532.063 952.078 528.63 952.078 525.125C952.078 521.691 955.629 518.293 959.144 518.293C964.562 518.293 968.077 521.727 968.077 525.125C968.077 528.665 964.525 532.063 959.144 532.063ZM998.353 532.063C994.802 532.063 991.288 528.63 991.288 525.125C991.288 521.691 994.839 518.293 998.353 518.293C1003.66 518.293 1007.29 521.727 1007.29 525.125C1007.32 528.665 1003.66 532.063 998.353 532.063Z" fill="#CBE5F0"/>
<path d="M356.25 550.16C356.25 553.072 353.873 555.431 350.938 555.431H319.062C316.127 555.431 313.75 553.072 313.75 550.16V534.345H250V581.789C250 590.223 257.438 597.604 265.938 597.604H404.062C412.562 597.604 420 590.223 420 581.789V534.345H356.25V550.16ZM404.062 481.629H377.5V465.815C377.5 457.38 370.062 450 361.562 450H308.438C299.938 450 292.5 457.38 292.5 465.815V481.629H265.938C257.438 481.629 250 489.01 250 497.444V523.802H420V497.444C420 489.01 412.562 481.629 404.062 481.629ZM356.25 481.629H313.75V471.086H356.25V481.629Z" fill="#CBE5F0"/>
<path d="M832.5 722.462H826.961C826.748 721.278 826.351 720.236 825.771 719.337C825.191 718.437 824.481 717.674 823.64 717.046C822.8 716.419 821.859 715.945 820.817 715.626C819.787 715.306 818.692 715.146 817.532 715.146C815.437 715.146 813.561 715.673 811.904 716.727C810.258 717.78 808.956 719.325 807.998 721.361C807.051 723.397 806.577 725.883 806.577 728.818C806.577 731.777 807.051 734.275 807.998 736.311C808.956 738.347 810.264 739.886 811.922 740.928C813.579 741.969 815.443 742.49 817.515 742.49C818.663 742.49 819.752 742.336 820.782 742.028C821.823 741.709 822.764 741.241 823.605 740.626C824.445 740.01 825.155 739.259 825.735 738.371C826.327 737.471 826.736 736.441 826.961 735.281L832.5 735.299C832.204 737.086 831.63 738.732 830.778 740.235C829.938 741.727 828.855 743.017 827.529 744.106C826.215 745.183 824.712 746.018 823.019 746.609C821.326 747.201 819.48 747.497 817.479 747.497C814.33 747.497 811.525 746.751 809.063 745.26C806.601 743.757 804.659 741.608 803.239 738.815C801.83 736.021 801.126 732.689 801.126 728.818C801.126 724.936 801.836 721.603 803.257 718.822C804.677 716.028 806.618 713.886 809.081 712.394C811.543 710.891 814.342 710.139 817.479 710.139C819.409 710.139 821.208 710.417 822.877 710.974C824.558 711.518 826.067 712.323 827.404 713.388C828.742 714.442 829.849 715.732 830.725 717.259C831.601 718.774 832.193 720.509 832.5 722.462ZM846.576 747.604C844.848 747.604 843.285 747.284 841.889 746.645C840.492 745.994 839.385 745.053 838.568 743.822C837.763 742.591 837.361 741.081 837.361 739.294C837.361 737.755 837.657 736.489 838.249 735.494C838.841 734.5 839.64 733.713 840.646 733.133C841.652 732.553 842.776 732.115 844.019 731.819C845.262 731.523 846.529 731.298 847.819 731.144C849.453 730.955 850.778 730.801 851.796 730.683C852.814 730.552 853.554 730.345 854.016 730.061C854.477 729.777 854.708 729.315 854.708 728.676V728.552C854.708 727.001 854.27 725.8 853.394 724.947C852.53 724.095 851.24 723.669 849.524 723.669C847.736 723.669 846.328 724.066 845.298 724.859C844.28 725.64 843.575 726.51 843.185 727.469L838.195 726.332C838.787 724.675 839.651 723.338 840.788 722.32C841.936 721.29 843.256 720.544 844.747 720.082C846.239 719.609 847.807 719.372 849.453 719.372C850.542 719.372 851.696 719.502 852.915 719.763C854.146 720.011 855.294 720.473 856.36 721.148C857.437 721.822 858.319 722.787 859.005 724.042C859.692 725.285 860.035 726.901 860.035 728.889V747H854.85V743.271H854.637C854.294 743.958 853.779 744.633 853.093 745.295C852.406 745.958 851.524 746.509 850.447 746.947C849.37 747.385 848.079 747.604 846.576 747.604ZM847.73 743.342C849.198 743.342 850.453 743.052 851.495 742.472C852.548 741.892 853.347 741.135 853.892 740.2C854.448 739.253 854.726 738.241 854.726 737.163V733.648C854.537 733.837 854.17 734.015 853.625 734.18C853.093 734.334 852.483 734.47 851.796 734.589C851.11 734.695 850.441 734.796 849.79 734.891C849.139 734.973 848.594 735.045 848.156 735.104C847.127 735.234 846.186 735.453 845.333 735.761C844.493 736.068 843.818 736.512 843.309 737.092C842.812 737.661 842.563 738.418 842.563 739.365C842.563 740.679 843.049 741.673 844.019 742.348C844.99 743.011 846.227 743.342 847.73 743.342ZM867.106 757.227V719.727H872.291V724.148H872.735C873.043 723.58 873.486 722.923 874.066 722.178C874.646 721.432 875.451 720.781 876.481 720.224C877.511 719.656 878.872 719.372 880.565 719.372C882.767 719.372 884.732 719.929 886.46 721.041C888.188 722.154 889.543 723.758 890.526 725.853C891.52 727.948 892.017 730.469 892.017 733.417C892.017 736.364 891.526 738.892 890.544 740.999C889.561 743.094 888.212 744.71 886.495 745.846C884.779 746.97 882.82 747.533 880.618 747.533C878.961 747.533 877.606 747.254 876.552 746.698C875.511 746.142 874.694 745.491 874.102 744.745C873.51 743.999 873.054 743.336 872.735 742.756H872.415V757.227H867.106ZM872.309 733.364C872.309 735.281 872.587 736.962 873.143 738.406C873.699 739.85 874.504 740.981 875.558 741.798C876.611 742.603 877.902 743.005 879.429 743.005C881.015 743.005 882.341 742.585 883.406 741.744C884.471 740.892 885.276 739.738 885.821 738.282C886.377 736.826 886.655 735.187 886.655 733.364C886.655 731.564 886.383 729.949 885.838 728.516C885.306 727.084 884.501 725.954 883.424 725.125C882.358 724.296 881.027 723.882 879.429 723.882C877.89 723.882 876.588 724.279 875.522 725.072C874.469 725.865 873.67 726.972 873.125 728.392C872.581 729.812 872.309 731.47 872.309 733.364ZM905.902 747.604C904.174 747.604 902.612 747.284 901.215 746.645C899.818 745.994 898.711 745.053 897.895 743.822C897.09 742.591 896.687 741.081 896.687 739.294C896.687 737.755 896.983 736.489 897.575 735.494C898.167 734.5 898.966 733.713 899.972 733.133C900.978 732.553 902.103 732.115 903.346 731.819C904.588 731.523 905.855 731.298 907.145 731.144C908.779 730.955 910.105 730.801 911.123 730.683C912.141 730.552 912.88 730.345 913.342 730.061C913.804 729.777 914.034 729.315 914.034 728.676V728.552C914.034 727.001 913.596 725.8 912.721 724.947C911.856 724.095 910.566 723.669 908.85 723.669C907.062 723.669 905.654 724.066 904.624 724.859C903.606 725.64 902.902 726.51 902.511 727.469L897.522 726.332C898.114 724.675 898.978 723.338 900.114 722.32C901.262 721.29 902.582 720.544 904.074 720.082C905.565 719.609 907.133 719.372 908.779 719.372C909.868 719.372 911.022 719.502 912.241 719.763C913.472 720.011 914.62 720.473 915.686 721.148C916.763 721.822 917.645 722.787 918.331 724.042C919.018 725.285 919.361 726.901 919.361 728.889V747H914.176V743.271H913.963C913.62 743.958 913.105 744.633 912.419 745.295C911.732 745.958 910.85 746.509 909.773 746.947C908.696 747.385 907.406 747.604 905.902 747.604ZM907.056 743.342C908.524 743.342 909.779 743.052 910.821 742.472C911.874 741.892 912.673 741.135 913.218 740.2C913.774 739.253 914.052 738.241 914.052 737.163V733.648C913.863 733.837 913.496 734.015 912.951 734.18C912.419 734.334 911.809 734.47 911.123 734.589C910.436 734.695 909.767 734.796 909.116 734.891C908.465 734.973 907.921 735.045 907.483 735.104C906.453 735.234 905.512 735.453 904.659 735.761C903.819 736.068 903.144 736.512 902.635 737.092C902.138 737.661 901.89 738.418 901.89 739.365C901.89 740.679 902.375 741.673 903.346 742.348C904.316 743.011 905.553 743.342 907.056 743.342ZM937.92 747.55C935.281 747.55 933.008 746.953 931.102 745.757C929.208 744.55 927.752 742.887 926.734 740.768C925.716 738.649 925.207 736.222 925.207 733.488C925.207 730.718 925.728 728.274 926.77 726.155C927.811 724.024 929.279 722.361 931.173 721.165C933.067 719.97 935.298 719.372 937.867 719.372C939.939 719.372 941.785 719.757 943.407 720.526C945.028 721.284 946.336 722.349 947.331 723.722C948.337 725.095 948.935 726.699 949.124 728.534H943.957C943.673 727.256 943.022 726.155 942.004 725.232C940.998 724.308 939.649 723.847 937.956 723.847C936.476 723.847 935.18 724.237 934.067 725.018C932.966 725.788 932.108 726.889 931.493 728.321C930.877 729.741 930.569 731.422 930.569 733.364C930.569 735.352 930.871 737.069 931.475 738.513C932.079 739.957 932.931 741.076 934.032 741.869C935.144 742.662 936.452 743.058 937.956 743.058C938.962 743.058 939.873 742.875 940.69 742.508C941.519 742.129 942.211 741.59 942.768 740.892C943.336 740.194 943.732 739.353 943.957 738.371H949.124C948.935 740.134 948.361 741.709 947.402 743.094C946.443 744.479 945.159 745.568 943.549 746.361C941.951 747.154 940.075 747.55 937.92 747.55ZM954.801 747V719.727H960.11V747H954.801ZM957.483 715.519C956.559 715.519 955.766 715.211 955.103 714.596C954.452 713.969 954.127 713.223 954.127 712.359C954.127 711.483 954.452 710.737 955.103 710.121C955.766 709.494 956.559 709.18 957.483 709.18C958.406 709.18 959.193 709.494 959.844 710.121C960.507 710.737 960.838 711.483 960.838 712.359C960.838 713.223 960.507 713.969 959.844 714.596C959.193 715.211 958.406 715.519 957.483 715.519ZM979.983 719.727V723.989H965.086V719.727H979.983ZM969.082 713.193H974.39V738.992C974.39 740.022 974.544 740.797 974.852 741.318C975.16 741.827 975.556 742.176 976.042 742.366C976.539 742.543 977.077 742.632 977.657 742.632C978.084 742.632 978.457 742.603 978.776 742.543C979.096 742.484 979.344 742.437 979.522 742.401L980.481 746.787C980.173 746.905 979.735 747.024 979.167 747.142C978.599 747.272 977.888 747.343 977.036 747.355C975.639 747.379 974.337 747.13 973.13 746.609C971.922 746.089 970.946 745.284 970.2 744.195C969.454 743.106 969.082 741.738 969.082 740.093V713.193ZM993.793 747.604C992.065 747.604 990.502 747.284 989.105 746.645C987.709 745.994 986.602 745.053 985.785 743.822C984.98 742.591 984.578 741.081 984.578 739.294C984.578 737.755 984.874 736.489 985.466 735.494C986.057 734.5 986.856 733.713 987.863 733.133C988.869 732.553 989.993 732.115 991.236 731.819C992.479 731.523 993.746 731.298 995.036 731.144C996.669 730.955 997.995 730.801 999.013 730.683C1000.03 730.552 1000.77 730.345 1001.23 730.061C1001.69 729.777 1001.93 729.315 1001.93 728.676V728.552C1001.93 727.001 1001.49 725.8 1000.61 724.947C999.747 724.095 998.457 723.669 996.74 723.669C994.953 723.669 993.544 724.066 992.515 724.859C991.497 725.64 990.792 726.51 990.402 727.469L985.412 726.332C986.004 724.675 986.868 723.338 988.005 722.32C989.153 721.29 990.473 720.544 991.964 720.082C993.456 719.609 995.024 719.372 996.669 719.372C997.758 719.372 998.913 719.502 1000.13 719.763C1001.36 720.011 1002.51 720.473 1003.58 721.148C1004.65 721.822 1005.54 722.787 1006.22 724.042C1006.91 725.285 1007.25 726.901 1007.25 728.889V747H1002.07V743.271H1001.85C1001.51 743.958 1001 744.633 1000.31 745.295C999.623 745.958 998.741 746.509 997.664 746.947C996.587 747.385 995.296 747.604 993.793 747.604ZM994.947 743.342C996.415 743.342 997.67 743.052 998.711 742.472C999.765 741.892 1000.56 741.135 1001.11 740.2C1001.66 739.253 1001.94 738.241 1001.94 737.163V733.648C1001.75 733.837 1001.39 734.015 1000.84 734.18C1000.31 734.334 999.7 734.47 999.013 734.589C998.327 734.695 997.658 734.796 997.007 734.891C996.356 734.973 995.811 735.045 995.373 735.104C994.343 735.234 993.402 735.453 992.55 735.761C991.71 736.068 991.035 736.512 990.526 737.092C990.029 737.661 989.78 738.418 989.78 739.365C989.78 740.679 990.266 741.673 991.236 742.348C992.207 743.011 993.444 743.342 994.947 743.342ZM1025.81 747.55C1023.17 747.55 1020.9 746.953 1018.99 745.757C1017.1 744.55 1015.64 742.887 1014.62 740.768C1013.61 738.649 1013.1 736.222 1013.1 733.488C1013.1 730.718 1013.62 728.274 1014.66 726.155C1015.7 724.024 1017.17 722.361 1019.06 721.165C1020.96 719.97 1023.19 719.372 1025.76 719.372C1027.83 719.372 1029.68 719.757 1031.3 720.526C1032.92 721.284 1034.23 722.349 1035.22 723.722C1036.23 725.095 1036.83 726.699 1037.01 728.534H1031.85C1031.56 727.256 1030.91 726.155 1029.89 725.232C1028.89 724.308 1027.54 723.847 1025.85 723.847C1024.37 723.847 1023.07 724.237 1021.96 725.018C1020.86 725.788 1020 726.889 1019.38 728.321C1018.77 729.741 1018.46 731.422 1018.46 733.364C1018.46 735.352 1018.76 737.069 1019.37 738.513C1019.97 739.957 1020.82 741.076 1021.92 741.869C1023.04 742.662 1024.34 743.058 1025.85 743.058C1026.85 743.058 1027.76 742.875 1028.58 742.508C1029.41 742.129 1030.1 741.59 1030.66 740.892C1031.23 740.194 1031.62 739.353 1031.85 738.371H1037.01C1036.83 740.134 1036.25 741.709 1035.29 743.094C1034.33 744.479 1033.05 745.568 1031.44 746.361C1029.84 747.154 1027.97 747.55 1025.81 747.55ZM1042.69 747V719.727H1048V747H1042.69ZM1045.37 715.519C1044.45 715.519 1043.66 715.211 1042.99 714.596C1042.34 713.969 1042.02 713.223 1042.02 712.359C1042.02 711.483 1042.34 710.737 1042.99 710.121C1043.66 709.494 1044.45 709.18 1045.37 709.18C1046.3 709.18 1047.08 709.494 1047.73 710.121C1048.4 710.737 1048.73 711.483 1048.73 712.359C1048.73 713.223 1048.4 713.969 1047.73 714.596C1047.08 715.211 1046.3 715.519 1045.37 715.519ZM1066.63 747.55C1064.07 747.55 1061.84 746.964 1059.94 745.793C1058.03 744.621 1056.55 742.981 1055.5 740.874C1054.44 738.767 1053.92 736.305 1053.92 733.488C1053.92 730.659 1054.44 728.185 1055.5 726.066C1056.55 723.947 1058.03 722.302 1059.94 721.13C1061.84 719.958 1064.07 719.372 1066.63 719.372C1069.19 719.372 1071.42 719.958 1073.33 721.13C1075.23 722.302 1076.71 723.947 1077.76 726.066C1078.82 728.185 1079.34 730.659 1079.34 733.488C1079.34 736.305 1078.82 738.767 1077.76 740.874C1076.71 742.981 1075.23 744.621 1073.33 745.793C1071.42 746.964 1069.19 747.55 1066.63 747.55ZM1066.65 743.094C1068.31 743.094 1069.68 742.656 1070.77 741.78C1071.86 740.904 1072.66 739.738 1073.18 738.282C1073.72 736.826 1073.98 735.222 1073.98 733.47C1073.98 731.73 1073.72 730.132 1073.18 728.676C1072.66 727.208 1071.86 726.031 1070.77 725.143C1069.68 724.255 1068.31 723.811 1066.65 723.811C1064.98 723.811 1063.59 724.255 1062.49 725.143C1061.41 726.031 1060.59 727.208 1060.06 728.676C1059.54 730.132 1059.28 731.73 1059.28 733.47C1059.28 735.222 1059.54 736.826 1060.06 738.282C1060.59 739.738 1061.41 740.904 1062.49 741.78C1063.59 742.656 1064.98 743.094 1066.65 743.094ZM1064.45 716.087L1068.6 707.902H1074.2L1068.69 716.087H1064.45ZM1090.58 730.807V747H1085.27V719.727H1090.37V724.166H1090.7C1091.33 722.722 1092.31 721.562 1093.65 720.686C1095 719.81 1096.7 719.372 1098.75 719.372C1100.61 719.372 1102.23 719.763 1103.63 720.544C1105.03 721.313 1106.11 722.462 1106.88 723.989C1107.65 725.516 1108.03 727.404 1108.03 729.653V747H1102.72V730.292C1102.72 728.315 1102.21 726.77 1101.18 725.658C1100.15 724.533 1098.73 723.971 1096.94 723.971C1095.7 723.971 1094.61 724.237 1093.65 724.77C1092.7 725.303 1091.95 726.084 1091.4 727.114C1090.85 728.132 1090.58 729.363 1090.58 730.807Z" fill="#CBE5F0"/>
<path d="M168.028 710.636V747H162.542V710.636H168.028ZM180.901 730.807V747H175.592V719.727H180.688V724.166H181.026C181.653 722.722 182.635 721.562 183.973 720.686C185.322 719.81 187.021 719.372 189.069 719.372C190.927 719.372 192.555 719.763 193.952 720.544C195.348 721.313 196.432 722.462 197.201 723.989C197.97 725.516 198.355 727.404 198.355 729.653V747H193.046V730.292C193.046 728.315 192.531 726.77 191.501 725.658C190.472 724.533 189.057 723.971 187.258 723.971C186.027 723.971 184.932 724.237 183.973 724.77C183.026 725.303 182.274 726.084 181.718 727.114C181.174 728.132 180.901 729.363 180.901 730.807ZM215.685 747.533C213.483 747.533 211.518 746.97 209.79 745.846C208.073 744.71 206.724 743.094 205.741 740.999C204.771 738.892 204.286 736.364 204.286 733.417C204.286 730.469 204.777 727.948 205.759 725.853C206.754 723.758 208.115 722.154 209.843 721.041C211.571 719.929 213.53 719.372 215.72 719.372C217.413 719.372 218.774 719.656 219.804 720.224C220.846 720.781 221.651 721.432 222.219 722.178C222.799 722.923 223.249 723.58 223.568 724.148H223.888V710.636H229.197V747H224.012V742.756H223.568C223.249 743.336 222.787 743.999 222.183 744.745C221.591 745.491 220.775 746.142 219.733 746.698C218.691 747.254 217.342 747.533 215.685 747.533ZM216.857 743.005C218.384 743.005 219.674 742.603 220.727 741.798C221.793 740.981 222.598 739.85 223.142 738.406C223.698 736.962 223.977 735.281 223.977 733.364C223.977 731.47 223.704 729.812 223.16 728.392C222.615 726.972 221.816 725.865 220.763 725.072C219.709 724.279 218.407 723.882 216.857 723.882C215.259 723.882 213.927 724.296 212.862 725.125C211.796 725.954 210.991 727.084 210.447 728.516C209.914 729.949 209.648 731.564 209.648 733.364C209.648 735.187 209.92 736.826 210.464 738.282C211.009 739.738 211.814 740.892 212.879 741.744C213.956 742.585 215.282 743.005 216.857 743.005ZM248.528 747.55C245.841 747.55 243.527 746.976 241.586 745.828C239.656 744.668 238.165 743.04 237.111 740.945C236.07 738.838 235.549 736.37 235.549 733.541C235.549 730.748 236.07 728.286 237.111 726.155C238.165 724.024 239.633 722.361 241.515 721.165C243.409 719.97 245.622 719.372 248.155 719.372C249.694 719.372 251.186 719.627 252.63 720.136C254.074 720.645 255.37 721.444 256.518 722.533C257.666 723.622 258.572 725.036 259.235 726.776C259.898 728.504 260.229 730.606 260.229 733.08V734.962H238.55V730.984H255.027C255.027 729.588 254.743 728.351 254.175 727.273C253.606 726.184 252.807 725.326 251.778 724.699C250.76 724.071 249.564 723.758 248.191 723.758C246.699 723.758 245.397 724.125 244.285 724.859C243.184 725.581 242.331 726.528 241.728 727.7C241.136 728.86 240.84 730.12 240.84 731.482V734.589C240.84 736.412 241.16 737.962 241.799 739.241C242.45 740.519 243.355 741.496 244.515 742.17C245.675 742.833 247.031 743.165 248.581 743.165C249.588 743.165 250.505 743.023 251.334 742.739C252.162 742.443 252.878 742.005 253.482 741.425C254.086 740.845 254.547 740.129 254.867 739.276L259.892 740.182C259.489 741.661 258.767 742.958 257.726 744.07C256.696 745.171 255.4 746.029 253.837 746.645C252.287 747.249 250.517 747.55 248.528 747.55ZM266.12 757.227V719.727H271.304V724.148H271.748C272.056 723.58 272.5 722.923 273.08 722.178C273.66 721.432 274.465 720.781 275.495 720.224C276.525 719.656 277.886 719.372 279.578 719.372C281.78 719.372 283.745 719.929 285.473 721.041C287.202 722.154 288.557 723.758 289.539 725.853C290.534 727.948 291.031 730.469 291.031 733.417C291.031 736.364 290.54 738.892 289.557 740.999C288.575 743.094 287.225 744.71 285.509 745.846C283.792 746.97 281.833 747.533 279.632 747.533C277.975 747.533 276.619 747.254 275.566 746.698C274.524 746.142 273.707 745.491 273.115 744.745C272.524 743.999 272.068 743.336 271.748 742.756H271.429V757.227H266.12ZM271.322 733.364C271.322 735.281 271.6 736.962 272.157 738.406C272.713 739.85 273.518 740.981 274.571 741.798C275.625 742.603 276.915 743.005 278.442 743.005C280.028 743.005 281.354 742.585 282.419 741.744C283.485 740.892 284.29 739.738 284.834 738.282C285.391 736.826 285.669 735.187 285.669 733.364C285.669 731.564 285.396 729.949 284.852 728.516C284.319 727.084 283.514 725.954 282.437 725.125C281.372 724.296 280.04 723.882 278.442 723.882C276.903 723.882 275.601 724.279 274.536 725.072C273.482 725.865 272.683 726.972 272.139 728.392C271.594 729.812 271.322 731.47 271.322 733.364ZM308.733 747.55C306.046 747.55 303.732 746.976 301.791 745.828C299.861 744.668 298.37 743.04 297.316 740.945C296.275 738.838 295.754 736.37 295.754 733.541C295.754 730.748 296.275 728.286 297.316 726.155C298.37 724.024 299.838 722.361 301.72 721.165C303.614 719.97 305.827 719.372 308.36 719.372C309.899 719.372 311.391 719.627 312.835 720.136C314.279 720.645 315.575 721.444 316.723 722.533C317.872 723.622 318.777 725.036 319.44 726.776C320.103 728.504 320.434 730.606 320.434 733.08V734.962H298.755V730.984H315.232C315.232 729.588 314.948 728.351 314.38 727.273C313.811 726.184 313.012 725.326 311.983 724.699C310.965 724.071 309.769 723.758 308.396 723.758C306.904 723.758 305.602 724.125 304.49 724.859C303.389 725.581 302.537 726.528 301.933 727.7C301.341 728.86 301.045 730.12 301.045 731.482V734.589C301.045 736.412 301.365 737.962 302.004 739.241C302.655 740.519 303.56 741.496 304.721 742.17C305.881 742.833 307.236 743.165 308.787 743.165C309.793 743.165 310.71 743.023 311.539 742.739C312.367 742.443 313.083 742.005 313.687 741.425C314.291 740.845 314.752 740.129 315.072 739.276L320.097 740.182C319.694 741.661 318.972 742.958 317.931 744.07C316.901 745.171 315.605 746.029 314.042 746.645C312.492 747.249 310.722 747.55 308.733 747.55ZM331.634 730.807V747H326.325V719.727H331.421V724.166H331.758C332.385 722.722 333.368 721.562 334.705 720.686C336.055 719.81 337.753 719.372 339.801 719.372C341.66 719.372 343.287 719.763 344.684 720.544C346.081 721.313 347.164 722.462 347.933 723.989C348.703 725.516 349.088 727.404 349.088 729.653V747H343.779V730.292C343.779 728.315 343.264 726.77 342.234 725.658C341.204 724.533 339.789 723.971 337.99 723.971C336.759 723.971 335.664 724.237 334.705 724.77C333.758 725.303 333.007 726.084 332.45 727.114C331.906 728.132 331.634 729.363 331.634 730.807ZM366.417 747.533C364.215 747.533 362.25 746.97 360.522 745.846C358.806 744.71 357.456 743.094 356.474 740.999C355.503 738.892 355.018 736.364 355.018 733.417C355.018 730.469 355.509 727.948 356.492 725.853C357.486 723.758 358.847 722.154 360.575 721.041C362.304 719.929 364.263 719.372 366.453 719.372C368.145 719.372 369.507 719.656 370.536 720.224C371.578 720.781 372.383 721.432 372.951 722.178C373.531 722.923 373.981 723.58 374.301 724.148H374.62V710.636H379.929V747H374.744V742.756H374.301C373.981 743.336 373.519 743.999 372.916 744.745C372.324 745.491 371.507 746.142 370.465 746.698C369.424 747.254 368.074 747.533 366.417 747.533ZM367.589 743.005C369.116 743.005 370.406 742.603 371.46 741.798C372.525 740.981 373.33 739.85 373.874 738.406C374.431 736.962 374.709 735.281 374.709 733.364C374.709 731.47 374.437 729.812 373.892 728.392C373.348 726.972 372.549 725.865 371.495 725.072C370.442 724.279 369.14 723.882 367.589 723.882C365.991 723.882 364.659 724.296 363.594 725.125C362.529 725.954 361.724 727.084 361.179 728.516C360.646 729.949 360.38 731.564 360.38 733.364C360.38 735.187 360.652 736.826 361.197 738.282C361.741 739.738 362.546 740.892 363.612 741.744C364.689 742.585 366.015 743.005 367.589 743.005ZM399.261 747.55C396.574 747.55 394.259 746.976 392.318 745.828C390.389 744.668 388.897 743.04 387.844 740.945C386.802 738.838 386.281 736.37 386.281 733.541C386.281 730.748 386.802 728.286 387.844 726.155C388.897 724.024 390.365 722.361 392.247 721.165C394.141 719.97 396.355 719.372 398.888 719.372C400.427 719.372 401.918 719.627 403.362 720.136C404.806 720.645 406.103 721.444 407.251 722.533C408.399 723.622 409.304 725.036 409.967 726.776C410.63 728.504 410.962 730.606 410.962 733.08V734.962H389.282V730.984H405.759C405.759 729.588 405.475 728.351 404.907 727.273C404.339 726.184 403.54 725.326 402.51 724.699C401.492 724.071 400.296 723.758 398.923 723.758C397.432 723.758 396.13 724.125 395.017 724.859C393.916 725.581 393.064 726.528 392.46 727.7C391.868 728.86 391.572 730.12 391.572 731.482V734.589C391.572 736.412 391.892 737.962 392.531 739.241C393.182 740.519 394.088 741.496 395.248 742.17C396.408 742.833 397.763 743.165 399.314 743.165C400.32 743.165 401.237 743.023 402.066 742.739C402.895 742.443 403.611 742.005 404.214 741.425C404.818 740.845 405.28 740.129 405.599 739.276L410.624 740.182C410.222 741.661 409.5 742.958 408.458 744.07C407.428 745.171 406.132 746.029 404.57 746.645C403.019 747.249 401.249 747.55 399.261 747.55ZM422.161 730.807V747H416.852V719.727H421.948V724.166H422.285C422.913 722.722 423.895 721.562 425.233 720.686C426.582 719.81 428.281 719.372 430.329 719.372C432.187 719.372 433.815 719.763 435.211 720.544C436.608 721.313 437.691 722.462 438.461 723.989C439.23 725.516 439.615 727.404 439.615 729.653V747H434.306V730.292C434.306 728.315 433.791 726.77 432.761 725.658C431.731 724.533 430.317 723.971 428.518 723.971C427.287 723.971 426.192 724.237 425.233 724.77C424.286 725.303 423.534 726.084 422.978 727.114C422.433 728.132 422.161 729.363 422.161 730.807ZM458.223 747.55C455.583 747.55 453.31 746.953 451.405 745.757C449.511 744.55 448.055 742.887 447.037 740.768C446.019 738.649 445.51 736.222 445.51 733.488C445.51 730.718 446.031 728.274 447.072 726.155C448.114 724.024 449.582 722.361 451.476 721.165C453.37 719.97 455.601 719.372 458.17 719.372C460.241 719.372 462.088 719.757 463.709 720.526C465.331 721.284 466.639 722.349 467.633 723.722C468.64 725.095 469.237 726.699 469.427 728.534H464.26C463.976 727.256 463.325 726.155 462.307 725.232C461.3 724.308 459.951 723.847 458.258 723.847C456.779 723.847 455.483 724.237 454.37 725.018C453.269 725.788 452.411 726.889 451.795 728.321C451.18 729.741 450.872 731.422 450.872 733.364C450.872 735.352 451.174 737.069 451.778 738.513C452.381 739.957 453.233 741.076 454.334 741.869C455.447 742.662 456.755 743.058 458.258 743.058C459.265 743.058 460.176 742.875 460.993 742.508C461.821 742.129 462.514 741.59 463.07 740.892C463.638 740.194 464.035 739.353 464.26 738.371H469.427C469.237 740.134 468.663 741.709 467.704 743.094C466.746 744.479 465.461 745.568 463.851 746.361C462.253 747.154 460.377 747.55 458.223 747.55ZM475.104 747V719.727H480.413V747H475.104ZM477.785 715.519C476.862 715.519 476.069 715.211 475.406 714.596C474.755 713.969 474.429 713.223 474.429 712.359C474.429 711.483 474.755 710.737 475.406 710.121C476.069 709.494 476.862 709.18 477.785 709.18C478.708 709.18 479.496 709.494 480.147 710.121C480.81 710.737 481.141 711.483 481.141 712.359C481.141 713.223 480.81 713.969 480.147 714.596C479.496 715.211 478.708 715.519 477.785 715.519ZM495.492 747.604C493.764 747.604 492.201 747.284 490.805 746.645C489.408 745.994 488.301 745.053 487.484 743.822C486.679 742.591 486.277 741.081 486.277 739.294C486.277 737.755 486.573 736.489 487.165 735.494C487.756 734.5 488.555 733.713 489.562 733.133C490.568 732.553 491.692 732.115 492.935 731.819C494.178 731.523 495.445 731.298 496.735 731.144C498.368 730.955 499.694 730.801 500.712 730.683C501.73 730.552 502.47 730.345 502.932 730.061C503.393 729.777 503.624 729.315 503.624 728.676V728.552C503.624 727.001 503.186 725.8 502.31 724.947C501.446 724.095 500.156 723.669 498.439 723.669C496.652 723.669 495.243 724.066 494.214 724.859C493.196 725.64 492.491 726.51 492.101 727.469L487.111 726.332C487.703 724.675 488.567 723.338 489.704 722.32C490.852 721.29 492.172 720.544 493.663 720.082C495.155 719.609 496.723 719.372 498.368 719.372C499.457 719.372 500.612 719.502 501.831 719.763C503.062 720.011 504.21 720.473 505.275 721.148C506.353 721.822 507.234 722.787 507.921 724.042C508.608 725.285 508.951 726.901 508.951 728.889V747H503.766V743.271H503.553C503.21 743.958 502.695 744.633 502.008 745.295C501.322 745.958 500.44 746.509 499.363 746.947C498.286 747.385 496.995 747.604 495.492 747.604ZM496.646 743.342C498.114 743.342 499.369 743.052 500.41 742.472C501.464 741.892 502.263 741.135 502.807 740.2C503.364 739.253 503.642 738.241 503.642 737.163V733.648C503.452 733.837 503.086 734.015 502.541 734.18C502.008 734.334 501.399 734.47 500.712 734.589C500.026 734.695 499.357 734.796 498.706 734.891C498.055 734.973 497.51 735.045 497.072 735.104C496.042 735.234 495.101 735.453 494.249 735.761C493.409 736.068 492.734 736.512 492.225 737.092C491.728 737.661 491.479 738.418 491.479 739.365C491.479 740.679 491.965 741.673 492.935 742.348C493.906 743.011 495.143 743.342 496.646 743.342Z" fill="#CBE5F0"/>
<path d="M1404.32 747V710.636H1427.11V715.359H1409.8V726.439H1425.92V731.144H1409.8V742.277H1427.33V747H1404.32ZM1434.02 747V719.727H1439.11V724.166H1439.45C1440.02 722.663 1440.95 721.491 1442.24 720.651C1443.53 719.798 1445.07 719.372 1446.87 719.372C1448.69 719.372 1450.22 719.798 1451.45 720.651C1452.7 721.503 1453.61 722.675 1454.21 724.166H1454.49C1455.14 722.71 1456.18 721.55 1457.6 720.686C1459.02 719.81 1460.71 719.372 1462.67 719.372C1465.15 719.372 1467.17 720.147 1468.73 721.698C1470.3 723.249 1471.09 725.587 1471.09 728.712V747H1465.78V729.209C1465.78 727.362 1465.28 726.025 1464.27 725.196C1463.27 724.367 1462.06 723.953 1460.67 723.953C1458.94 723.953 1457.6 724.486 1456.64 725.551C1455.68 726.605 1455.2 727.96 1455.2 729.617V747H1449.91V728.871C1449.91 727.392 1449.45 726.202 1448.52 725.303C1447.6 724.403 1446.4 723.953 1444.92 723.953C1443.91 723.953 1442.98 724.219 1442.13 724.752C1441.29 725.273 1440.61 726.001 1440.09 726.936C1439.58 727.871 1439.33 728.954 1439.33 730.185V747H1434.02ZM1478.21 757.227V719.727H1483.39V724.148H1483.83C1484.14 723.58 1484.59 722.923 1485.17 722.178C1485.75 721.432 1486.55 720.781 1487.58 720.224C1488.61 719.656 1489.97 719.372 1491.67 719.372C1493.87 719.372 1495.83 719.929 1497.56 721.041C1499.29 722.154 1500.64 723.758 1501.63 725.853C1502.62 727.948 1503.12 730.469 1503.12 733.417C1503.12 736.364 1502.63 738.892 1501.64 740.999C1500.66 743.094 1499.31 744.71 1497.6 745.846C1495.88 746.97 1493.92 747.533 1491.72 747.533C1490.06 747.533 1488.71 747.254 1487.65 746.698C1486.61 746.142 1485.79 745.491 1485.2 744.745C1484.61 743.999 1484.15 743.336 1483.83 742.756H1483.52V757.227H1478.21ZM1483.41 733.364C1483.41 735.281 1483.69 736.962 1484.24 738.406C1484.8 739.85 1485.6 740.981 1486.66 741.798C1487.71 742.603 1489 743.005 1490.53 743.005C1492.11 743.005 1493.44 742.585 1494.51 741.744C1495.57 740.892 1496.38 739.738 1496.92 738.282C1497.48 736.826 1497.76 735.187 1497.76 733.364C1497.76 731.564 1497.48 729.949 1496.94 728.516C1496.41 727.084 1495.6 725.954 1494.52 725.125C1493.46 724.296 1492.13 723.882 1490.53 723.882C1488.99 723.882 1487.69 724.279 1486.62 725.072C1485.57 725.865 1484.77 726.972 1484.23 728.392C1483.68 729.812 1483.41 731.47 1483.41 733.364ZM1514.37 710.636V747H1509.07V710.636H1514.37ZM1533.27 747.55C1530.58 747.55 1528.27 746.976 1526.33 745.828C1524.4 744.668 1522.91 743.04 1521.85 740.945C1520.81 738.838 1520.29 736.37 1520.29 733.541C1520.29 730.748 1520.81 728.286 1521.85 726.155C1522.91 724.024 1524.38 722.361 1526.26 721.165C1528.15 719.97 1530.37 719.372 1532.9 719.372C1534.44 719.372 1535.93 719.627 1537.37 720.136C1538.82 720.645 1540.11 721.444 1541.26 722.533C1542.41 723.622 1543.31 725.036 1543.98 726.776C1544.64 728.504 1544.97 730.606 1544.97 733.08V734.962H1523.29V730.984H1539.77C1539.77 729.588 1539.49 728.351 1538.92 727.273C1538.35 726.184 1537.55 725.326 1536.52 724.699C1535.5 724.071 1534.31 723.758 1532.93 723.758C1531.44 723.758 1530.14 724.125 1529.03 724.859C1527.93 725.581 1527.07 726.528 1526.47 727.7C1525.88 728.86 1525.58 730.12 1525.58 731.482V734.589C1525.58 736.412 1525.9 737.962 1526.54 739.241C1527.19 740.519 1528.1 741.496 1529.26 742.17C1530.42 742.833 1531.77 743.165 1533.32 743.165C1534.33 743.165 1535.25 743.023 1536.08 742.739C1536.91 742.443 1537.62 742.005 1538.23 741.425C1538.83 740.845 1539.29 740.129 1539.61 739.276L1544.63 740.182C1544.23 741.661 1543.51 742.958 1542.47 744.07C1541.44 745.171 1540.14 746.029 1538.58 746.645C1537.03 747.249 1535.26 747.55 1533.27 747.55ZM1558.8 747.604C1557.07 747.604 1555.51 747.284 1554.11 746.645C1552.72 745.994 1551.61 745.053 1550.79 743.822C1549.99 742.591 1549.58 741.081 1549.58 739.294C1549.58 737.755 1549.88 736.489 1550.47 735.494C1551.06 734.5 1551.86 733.713 1552.87 733.133C1553.88 732.553 1555 732.115 1556.24 731.819C1557.49 731.523 1558.75 731.298 1560.04 731.144C1561.68 730.955 1563 730.801 1564.02 730.683C1565.04 730.552 1565.78 730.345 1566.24 730.061C1566.7 729.777 1566.93 729.315 1566.93 728.676V728.552C1566.93 727.001 1566.49 725.8 1565.62 724.947C1564.75 724.095 1563.46 723.669 1561.75 723.669C1559.96 723.669 1558.55 724.066 1557.52 724.859C1556.5 725.64 1555.8 726.51 1555.41 727.469L1550.42 726.332C1551.01 724.675 1551.87 723.338 1553.01 722.32C1554.16 721.29 1555.48 720.544 1556.97 720.082C1558.46 719.609 1560.03 719.372 1561.68 719.372C1562.76 719.372 1563.92 719.502 1565.14 719.763C1566.37 720.011 1567.52 720.473 1568.58 721.148C1569.66 721.822 1570.54 722.787 1571.23 724.042C1571.91 725.285 1572.26 726.901 1572.26 728.889V747H1567.07V743.271H1566.86C1566.52 743.958 1566 744.633 1565.32 745.295C1564.63 745.958 1563.75 746.509 1562.67 746.947C1561.59 747.385 1560.3 747.604 1558.8 747.604ZM1559.95 743.342C1561.42 743.342 1562.68 743.052 1563.72 742.472C1564.77 741.892 1565.57 741.135 1566.11 740.2C1566.67 739.253 1566.95 738.241 1566.95 737.163V733.648C1566.76 733.837 1566.39 734.015 1565.85 734.18C1565.32 734.334 1564.71 734.47 1564.02 734.589C1563.33 734.695 1562.66 734.796 1562.01 734.891C1561.36 734.973 1560.82 735.045 1560.38 735.104C1559.35 735.234 1558.41 735.453 1557.56 735.761C1556.72 736.068 1556.04 736.512 1555.53 737.092C1555.04 737.661 1554.79 738.418 1554.79 739.365C1554.79 740.679 1555.27 741.673 1556.24 742.348C1557.21 743.011 1558.45 743.342 1559.95 743.342ZM1579.76 747V710.636H1585.06V724.148H1585.38C1585.69 723.58 1586.14 722.923 1586.72 722.178C1587.3 721.432 1588.1 720.781 1589.13 720.224C1590.16 719.656 1591.52 719.372 1593.21 719.372C1595.42 719.372 1597.38 719.929 1599.11 721.041C1600.84 722.154 1602.19 723.758 1603.18 725.853C1604.17 727.948 1604.67 730.469 1604.67 733.417C1604.67 736.364 1604.18 738.892 1603.19 740.999C1602.21 743.094 1600.86 744.71 1599.14 745.846C1597.43 746.97 1595.47 747.533 1593.27 747.533C1591.61 747.533 1590.26 747.254 1589.2 746.698C1588.16 746.142 1587.34 745.491 1586.75 744.745C1586.16 743.999 1585.7 743.336 1585.38 742.756H1584.94V747H1579.76ZM1584.96 733.364C1584.96 735.281 1585.24 736.962 1585.79 738.406C1586.35 739.85 1587.15 740.981 1588.21 741.798C1589.26 742.603 1590.55 743.005 1592.08 743.005C1593.66 743.005 1594.99 742.585 1596.06 741.744C1597.12 740.892 1597.93 739.738 1598.47 738.282C1599.03 736.826 1599.3 735.187 1599.3 733.364C1599.3 731.564 1599.03 729.949 1598.49 728.516C1597.96 727.084 1597.15 725.954 1596.07 725.125C1595.01 724.296 1593.68 723.882 1592.08 723.882C1590.54 723.882 1589.24 724.279 1588.17 725.072C1587.12 725.865 1586.32 726.972 1585.77 728.392C1585.23 729.812 1584.96 731.47 1584.96 733.364ZM1610.63 747V719.727H1615.94V747H1610.63ZM1613.31 715.519C1612.39 715.519 1611.59 715.211 1610.93 714.596C1610.28 713.969 1609.95 713.223 1609.95 712.359C1609.95 711.483 1610.28 710.737 1610.93 710.121C1611.59 709.494 1612.39 709.18 1613.31 709.18C1614.23 709.18 1615.02 709.494 1615.67 710.121C1616.33 710.737 1616.67 711.483 1616.67 712.359C1616.67 713.223 1616.33 713.969 1615.67 714.596C1615.02 715.211 1614.23 715.519 1613.31 715.519ZM1628.39 710.636V747H1623.08V710.636H1628.39ZM1635.53 747V719.727H1640.84V747H1635.53ZM1638.21 715.519C1637.29 715.519 1636.5 715.211 1635.83 714.596C1635.18 713.969 1634.86 713.223 1634.86 712.359C1634.86 711.483 1635.18 710.737 1635.83 710.121C1636.5 709.494 1637.29 709.18 1638.21 709.18C1639.13 709.18 1639.92 709.494 1640.57 710.121C1641.24 710.737 1641.57 711.483 1641.57 712.359C1641.57 713.223 1641.24 713.969 1640.57 714.596C1639.92 715.211 1639.13 715.519 1638.21 715.519ZM1658.19 747.533C1655.99 747.533 1654.02 746.97 1652.3 745.846C1650.58 744.71 1649.23 743.094 1648.25 740.999C1647.28 738.892 1646.79 736.364 1646.79 733.417C1646.79 730.469 1647.28 727.948 1648.27 725.853C1649.26 723.758 1650.62 722.154 1652.35 721.041C1654.08 719.929 1656.04 719.372 1658.23 719.372C1659.92 719.372 1661.28 719.656 1662.31 720.224C1663.35 720.781 1664.16 721.432 1664.73 722.178C1665.31 722.923 1665.76 723.58 1666.07 724.148H1666.39V710.636H1671.7V747H1666.52V742.756H1666.07C1665.76 743.336 1665.29 743.999 1664.69 744.745C1664.1 745.491 1663.28 746.142 1662.24 746.698C1661.2 747.254 1659.85 747.533 1658.19 747.533ZM1659.36 743.005C1660.89 743.005 1662.18 742.603 1663.23 741.798C1664.3 740.981 1665.1 739.85 1665.65 738.406C1666.2 736.962 1666.48 735.281 1666.48 733.364C1666.48 731.47 1666.21 729.812 1665.67 728.392C1665.12 726.972 1664.32 725.865 1663.27 725.072C1662.22 724.279 1660.91 723.882 1659.36 723.882C1657.77 723.882 1656.43 724.296 1655.37 725.125C1654.3 725.954 1653.5 727.084 1652.95 728.516C1652.42 729.949 1652.15 731.564 1652.15 733.364C1652.15 735.187 1652.43 736.826 1652.97 738.282C1653.52 739.738 1654.32 740.892 1655.39 741.744C1656.46 742.585 1657.79 743.005 1659.36 743.005ZM1687.22 747.604C1685.49 747.604 1683.93 747.284 1682.53 746.645C1681.13 745.994 1680.03 745.053 1679.21 743.822C1678.4 742.591 1678 741.081 1678 739.294C1678 737.755 1678.3 736.489 1678.89 735.494C1679.48 734.5 1680.28 733.713 1681.29 733.133C1682.29 732.553 1683.42 732.115 1684.66 731.819C1685.9 731.523 1687.17 731.298 1688.46 731.144C1690.09 730.955 1691.42 730.801 1692.44 730.683C1693.46 730.552 1694.2 730.345 1694.66 730.061C1695.12 729.777 1695.35 729.315 1695.35 728.676V728.552C1695.35 727.001 1694.91 725.8 1694.04 724.947C1693.17 724.095 1691.88 723.669 1690.16 723.669C1688.38 723.669 1686.97 724.066 1685.94 724.859C1684.92 725.64 1684.22 726.51 1683.83 727.469L1678.84 726.332C1679.43 724.675 1680.29 723.338 1681.43 722.32C1682.58 721.29 1683.9 720.544 1685.39 720.082C1686.88 719.609 1688.45 719.372 1690.09 719.372C1691.18 719.372 1692.34 719.502 1693.56 719.763C1694.79 720.011 1695.94 720.473 1697 721.148C1698.08 721.822 1698.96 722.787 1699.65 724.042C1700.33 725.285 1700.68 726.901 1700.68 728.889V747H1695.49V743.271H1695.28C1694.94 743.958 1694.42 744.633 1693.73 745.295C1693.05 745.958 1692.17 746.509 1691.09 746.947C1690.01 747.385 1688.72 747.604 1687.22 747.604ZM1688.37 743.342C1689.84 743.342 1691.09 743.052 1692.14 742.472C1693.19 741.892 1693.99 741.135 1694.53 740.2C1695.09 739.253 1695.37 738.241 1695.37 737.163V733.648C1695.18 733.837 1694.81 734.015 1694.27 734.18C1693.73 734.334 1693.12 734.47 1692.44 734.589C1691.75 734.695 1691.08 734.796 1690.43 734.891C1689.78 734.973 1689.24 735.045 1688.8 735.104C1687.77 735.234 1686.83 735.453 1685.97 735.761C1685.13 736.068 1684.46 736.512 1683.95 737.092C1683.45 737.661 1683.2 738.418 1683.2 739.365C1683.2 740.679 1683.69 741.673 1684.66 742.348C1685.63 743.011 1686.87 743.342 1688.37 743.342ZM1717.96 747.533C1715.76 747.533 1713.79 746.97 1712.06 745.846C1710.35 744.71 1709 743.094 1708.01 740.999C1707.04 738.892 1706.56 736.364 1706.56 733.417C1706.56 730.469 1707.05 727.948 1708.03 725.853C1709.03 723.758 1710.39 722.154 1712.12 721.041C1713.84 719.929 1715.8 719.372 1717.99 719.372C1719.69 719.372 1721.05 719.656 1722.08 720.224C1723.12 720.781 1723.92 721.432 1724.49 722.178C1725.07 722.923 1725.52 723.58 1725.84 724.148H1726.16V710.636H1731.47V747H1726.28V742.756H1725.84C1725.52 743.336 1725.06 743.999 1724.46 744.745C1723.86 745.491 1723.05 746.142 1722.01 746.698C1720.96 747.254 1719.61 747.533 1717.96 747.533ZM1719.13 743.005C1720.66 743.005 1721.95 742.603 1723 741.798C1724.06 740.981 1724.87 739.85 1725.41 738.406C1725.97 736.962 1726.25 735.281 1726.25 733.364C1726.25 731.47 1725.98 729.812 1725.43 728.392C1724.89 726.972 1724.09 725.865 1723.04 725.072C1721.98 724.279 1720.68 723.882 1719.13 723.882C1717.53 723.882 1716.2 724.296 1715.13 725.125C1714.07 725.954 1713.26 727.084 1712.72 728.516C1712.19 729.949 1711.92 731.564 1711.92 733.364C1711.92 735.187 1712.19 736.826 1712.74 738.282C1713.28 739.738 1714.09 740.892 1715.15 741.744C1716.23 742.585 1717.55 743.005 1719.13 743.005Z" fill="#CBE5F0"/>
</svg>
