<?xml version="1.0" encoding="utf-8"?>
<!-- Generator: Adobe Illustrator 24.1.0, SVG Export Plug-In . SVG Version: 6.00 Build 0)  -->
<svg version="1.1" id="Capa_1" xmlns="http://www.w3.org/2000/svg" xmlns:xlink="http://www.w3.org/1999/xlink" x="0px" y="0px"
	 viewBox="0 0 434 75" style="enable-background:new 0 0 434 75;" xml:space="preserve">
<style type="text/css">
	.st0{fill:#146285;}
	.st1{fill:#FFFFFF;}
</style>
<path class="st0" d="M2.6,11c-0.7-0.7-1-1.5-1-2.5c0-0.9,0.3-1.7,1-2.4s1.6-1,2.6-1S7,5.4,7.7,6c0.7,0.7,1,1.5,1,2.4
	c0,1-0.3,1.9-1,2.6c-0.7,0.7-1.6,1-2.6,1S3.3,11.7,2.6,11z M2.7,20.1h4.9v36.6H2.7V20.1z"/>
<path class="st0" d="M57.2,23.7c2.7,2.7,4.1,6.6,4.1,11.7v21.2h-4.9V35.9c0-3.8-0.9-6.7-2.9-8.7c-1.9-2-4.6-3-8.1-3
	c-3.9,0-7.1,1.2-9.4,3.5c-2.3,2.3-3.4,5.6-3.4,9.7v19.2h-4.9V20h4.7v6.8c1.3-2.2,3.2-4,5.6-5.2c2.4-1.2,5.2-1.8,8.3-1.8
	C50.9,19.7,54.5,21,57.2,23.7z"/>
<path class="st0" d="M86.2,54.5c-2.9-1.6-5.1-3.8-6.7-6.6C77.8,45,77,41.7,77,38.2c0-3.6,0.8-6.8,2.4-9.6c1.6-2.8,3.9-5,6.7-6.6
	c2.9-1.6,6.1-2.4,9.7-2.4c3.2,0,6,0.6,8.5,1.8c2.5,1.2,4.4,3,5.9,5.4l-3.7,2.5c-1.2-1.8-2.7-3.2-4.6-4.1c-1.9-0.9-3.9-1.4-6.1-1.4
	c-2.6,0-5,0.6-7.1,1.8c-2.1,1.2-3.8,2.9-4.9,5.1c-1.2,2.2-1.8,4.7-1.8,7.4c0,2.8,0.6,5.3,1.8,7.5c1.2,2.2,2.8,3.8,4.9,5
	c2.1,1.2,4.5,1.8,7.1,1.8c2.2,0,4.2-0.4,6.1-1.3c1.9-0.9,3.4-2.2,4.6-4l3.7,2.5c-1.4,2.4-3.4,4.2-5.9,5.4c-2.5,1.2-5.3,1.8-8.4,1.8
	C92.2,56.8,89,56,86.2,54.5z"/>
<path class="st0" d="M130.8,54.4c-2.8-1.6-5.1-3.8-6.7-6.6c-1.6-2.8-2.4-6-2.4-9.6c0-3.6,0.8-6.8,2.4-9.6c1.6-2.8,3.9-5,6.7-6.6
	c2.8-1.6,6-2.4,9.5-2.4c3.5,0,6.7,0.8,9.5,2.4c2.8,1.6,5,3.8,6.6,6.6c1.6,2.8,2.4,6,2.4,9.6c0,3.6-0.8,6.8-2.4,9.6
	c-1.6,2.8-3.8,5-6.6,6.6c-2.8,1.6-6,2.4-9.5,2.4C136.9,56.8,133.7,56,130.8,54.4z M147.4,50.7c2.1-1.2,3.7-2.9,4.8-5
	c1.2-2.2,1.7-4.7,1.7-7.5c0-2.8-0.6-5.3-1.7-7.4c-1.2-2.2-2.8-3.9-4.8-5.1c-2.1-1.2-4.4-1.8-7-1.8c-2.6,0-4.9,0.6-7,1.8
	s-3.7,2.9-4.9,5.1c-1.2,2.2-1.8,4.7-1.8,7.4c0,2.8,0.6,5.3,1.8,7.5c1.2,2.2,2.8,3.9,4.9,5c2.1,1.2,4.4,1.8,7,1.8
	C143,52.4,145.3,51.8,147.4,50.7z"/>
<path class="st0" d="M184.7,21.6c2.3-1.3,5.1-1.9,8.5-1.9v4.8l-1.2-0.1c-3.9,0-6.9,1.2-9.1,3.6c-2.2,2.4-3.3,5.7-3.3,10v18.7h-4.9
	V20h4.7v7.2C180.7,24.7,182.4,22.9,184.7,21.6z"/>
<path class="st0" d="M236.5,21.9c2.8,1.6,5,3.7,6.5,6.6c1.6,2.8,2.4,6.1,2.4,9.7c0,3.7-0.8,6.9-2.4,9.8c-1.6,2.8-3.7,5-6.5,6.6
	c-2.8,1.6-5.9,2.3-9.4,2.3c-3,0-5.6-0.6-8-1.8c-2.4-1.2-4.4-3-5.9-5.4V70h-4.9V19.8h4.7v7.2c1.5-2.4,3.5-4.3,5.9-5.6
	c2.4-1.3,5.2-2,8.3-2C230.6,19.6,233.7,20.3,236.5,21.9z M233.7,50.7c2.1-1.2,3.7-2.9,4.9-5c1.2-2.2,1.8-4.7,1.8-7.5
	c0-2.8-0.6-5.3-1.8-7.4c-1.2-2.2-2.8-3.8-4.9-5c-2.1-1.2-4.4-1.8-7-1.8c-2.6,0-4.9,0.6-7,1.8c-2.1,1.2-3.7,2.9-4.9,5
	c-1.2,2.2-1.8,4.6-1.8,7.4c0,2.8,0.6,5.3,1.8,7.5c1.2,2.2,2.8,3.9,4.9,5c2.1,1.2,4.4,1.8,7,1.8C229.3,52.4,231.6,51.8,233.7,50.7z"
	/>
<path class="st0" d="M266.7,54.4c-2.8-1.6-5.1-3.8-6.7-6.6c-1.6-2.8-2.4-6-2.4-9.6c0-3.6,0.8-6.8,2.4-9.6c1.6-2.8,3.9-5,6.7-6.6
	c2.8-1.6,6-2.4,9.5-2.4c3.5,0,6.7,0.8,9.5,2.4c2.8,1.6,5,3.8,6.7,6.6c1.6,2.8,2.4,6,2.4,9.6c0,3.6-0.8,6.8-2.4,9.6
	c-1.6,2.8-3.8,5-6.7,6.6c-2.8,1.6-6,2.4-9.5,2.4C272.7,56.8,269.5,56,266.7,54.4z M283.2,50.7c2.1-1.2,3.7-2.9,4.8-5
	c1.2-2.2,1.7-4.7,1.7-7.5c0-2.8-0.6-5.3-1.7-7.4c-1.2-2.2-2.8-3.9-4.8-5.1c-2.1-1.2-4.4-1.8-7-1.8c-2.6,0-4.9,0.6-7,1.8
	c-2.1,1.2-3.7,2.9-4.9,5.1c-1.2,2.2-1.8,4.7-1.8,7.4c0,2.8,0.6,5.3,1.8,7.5c1.2,2.2,2.8,3.9,4.9,5c2.1,1.2,4.4,1.8,7,1.8
	C278.8,52.4,281.2,51.8,283.2,50.7z"/>
<path class="st0" d="M319.1,21.6c2.3-1.3,5.1-1.9,8.5-1.9v4.8l-1.2-0.1c-3.9,0-6.9,1.2-9.1,3.6c-2.2,2.4-3.3,5.7-3.3,10v18.7h-4.9
	V20h4.7v7.2C315.1,24.7,316.8,22.8,319.1,21.6z"/>
<path class="st0" d="M411.8,74.8h-76.1V22.2c0-11.4,9.2-20.6,20.6-20.6h55.4c11.4,0,20.6,9.2,20.6,20.6v32
	C432.5,65.6,423.2,74.8,411.8,74.8z"/>
<path class="st1" d="M377.3,23.2c2.6,2.4,3.9,6,3.9,10.7v22.8h-4.8V51c-1.1,1.9-2.8,3.4-4.9,4.5c-2.2,1.1-4.8,1.6-7.7,1.6
	c-4.1,0-7.4-1-9.8-2.9c-2.4-2-3.6-4.6-3.6-7.8c0-3.1,1.1-5.7,3.4-7.6c2.3-1.9,5.9-2.9,10.8-2.9h11.7v-2.2c0-3.2-0.9-5.6-2.7-7.3
	c-1.8-1.7-4.4-2.5-7.8-2.5c-2.3,0-4.6,0.4-6.7,1.2s-4,1.8-5.5,3.2l-2.2-3.7c1.9-1.6,4.1-2.8,6.7-3.7c2.6-0.9,5.4-1.3,8.3-1.3
	C371,19.6,374.7,20.8,377.3,23.2z M371.7,51.2c2-1.3,3.5-3.1,4.5-5.6v-6h-11.6c-6.3,0-9.5,2.2-9.5,6.6c0,2.1,0.8,3.8,2.5,5.1
	c1.6,1.2,3.9,1.9,6.9,1.9C367.3,53.2,369.7,52.5,371.7,51.2z"/>
<path class="st1" d="M407.9,21.5c2.3-1.3,5.2-1.9,8.6-1.9v4.8l-1.2-0.1c-3.9,0-6.9,1.2-9.1,3.6c-2.2,2.4-3.3,5.7-3.3,10v18.8h-5
	V19.9h4.8v7.2C403.9,24.6,405.6,22.7,407.9,21.5z"/>
</svg>
