<svg id="Capa_1" data-name="Capa 1" xmlns="http://www.w3.org/2000/svg" viewBox="0 0 123 20.5"><defs><style>.cls-1{fill:#146285;}.cls-2{fill:#fff;}</style></defs><path class="cls-1" d="M.3,2.53A1,1,0,0,1,0,1.81a1,1,0,0,1,.3-.69,1.05,1.05,0,0,1,.75-.3,1.05,1.05,0,0,1,.75.29.91.91,0,0,1,.3.68,1,1,0,0,1-.3.73,1,1,0,0,1-.75.3A1.08,1.08,0,0,1,.3,2.53Zm0,2.57H1.76V15.5H.32Z"/><path class="cls-1" d="M16.19,6.13a4.38,4.38,0,0,1,1.18,3.31v6H15.93V9.58a3.37,3.37,0,0,0-.83-2.47,3.13,3.13,0,0,0-2.36-.85,3.69,3.69,0,0,0-2.73,1A3.75,3.75,0,0,0,9,10v5.45H7.57V5.07H9V7a4,4,0,0,1,1.63-1.47A5.29,5.29,0,0,1,13,5,4.4,4.4,0,0,1,16.19,6.13Z"/><path class="cls-1" d="M24.6,14.86a4.92,4.92,0,0,1-2-1.88,5.37,5.37,0,0,1-.7-2.74,5.28,5.28,0,0,1,.7-2.73,5.06,5.06,0,0,1,2-1.88A5.82,5.82,0,0,1,27.42,5a5.56,5.56,0,0,1,2.46.52A4.08,4.08,0,0,1,31.59,7l-1.07.71a3.44,3.44,0,0,0-1.34-1.15,4,4,0,0,0-1.76-.39,4.18,4.18,0,0,0-2.07.51,3.48,3.48,0,0,0-1.44,1.43,4.24,4.24,0,0,0-.52,2.12,4.19,4.19,0,0,0,.52,2.12,3.54,3.54,0,0,0,1.44,1.43,4.28,4.28,0,0,0,2.07.5,4,4,0,0,0,1.76-.38,3.34,3.34,0,0,0,1.34-1.14l1.07.71A4.05,4.05,0,0,1,29.87,15a5.61,5.61,0,0,1-2.45.53A5.82,5.82,0,0,1,24.6,14.86Z"/><path class="cls-1" d="M37.59,14.85A5,5,0,0,1,35.65,13a5.25,5.25,0,0,1-.71-2.73,5.29,5.29,0,0,1,.71-2.73,5,5,0,0,1,1.94-1.88,6.08,6.08,0,0,1,5.55,0,5,5,0,0,1,1.93,1.88,5.38,5.38,0,0,1,.7,2.73,5.44,5.44,0,0,1-.7,2.73,5,5,0,0,1-1.93,1.88,5.93,5.93,0,0,1-5.55,0Zm4.81-1.06a3.53,3.53,0,0,0,1.4-1.44,4.31,4.31,0,0,0,.51-2.11,4.35,4.35,0,0,0-.51-2.12,3.45,3.45,0,0,0-1.4-1.43,4.32,4.32,0,0,0-4.07,0,3.55,3.55,0,0,0-1.42,1.43,4.35,4.35,0,0,0-.51,2.12,4.31,4.31,0,0,0,.51,2.11,3.64,3.64,0,0,0,1.42,1.44,4.39,4.39,0,0,0,4.07,0Z"/><path class="cls-1" d="M53.25,5.54A5.17,5.17,0,0,1,55.73,5V6.37l-.35,0a3.46,3.46,0,0,0-2.63,1,4,4,0,0,0-1,2.83v5.3H50.36V5.08h1.38v2A3.45,3.45,0,0,1,53.25,5.54Z"/><path class="cls-1" d="M68.29,5.62a4.75,4.75,0,0,1,1.9,1.87,5.43,5.43,0,0,1,.69,2.75A5.5,5.5,0,0,1,70.19,13a4.92,4.92,0,0,1-1.89,1.87,5.6,5.6,0,0,1-2.73.66A5.09,5.09,0,0,1,63.24,15a4.34,4.34,0,0,1-1.71-1.53v5.8H60.09V5h1.38V7.09a4.4,4.4,0,0,1,1.71-1.58A5,5,0,0,1,65.57,5,5.61,5.61,0,0,1,68.29,5.62Zm-.79,8.17a3.64,3.64,0,0,0,1.42-1.44,4.21,4.21,0,0,0,.52-2.11,4.18,4.18,0,0,0-.52-2.11A3.68,3.68,0,0,0,67.5,6.7a4.22,4.22,0,0,0-4.06,0A3.75,3.75,0,0,0,62,8.13a4.28,4.28,0,0,0-.51,2.11A4.31,4.31,0,0,0,62,12.35a3.71,3.71,0,0,0,1.42,1.44,4.37,4.37,0,0,0,4.06,0Z"/><path class="cls-1" d="M77.08,14.85a5,5,0,0,1-2-1.88,5.34,5.34,0,0,1-.7-2.73,5.28,5.28,0,0,1,.7-2.73,5,5,0,0,1,2-1.88,6.06,6.06,0,0,1,5.54,0,4.85,4.85,0,0,1,1.93,1.88,5.28,5.28,0,0,1,.7,2.73,5.34,5.34,0,0,1-.7,2.73,4.85,4.85,0,0,1-1.93,1.88,5.91,5.91,0,0,1-5.54,0Zm4.8-1.06a3.62,3.62,0,0,0,1.41-1.44,4.31,4.31,0,0,0,.51-2.11,4.35,4.35,0,0,0-.51-2.12,3.53,3.53,0,0,0-1.41-1.43,4,4,0,0,0-2-.51,4.09,4.09,0,0,0-2,.51A3.53,3.53,0,0,0,76.4,8.12a4.24,4.24,0,0,0-.52,2.12,4.21,4.21,0,0,0,.52,2.11,3.62,3.62,0,0,0,1.41,1.44,4.19,4.19,0,0,0,2,.5A4.13,4.13,0,0,0,81.88,13.79Z"/><path class="cls-1" d="M92.32,5.53A5.2,5.2,0,0,1,94.8,5V6.36l-.34,0a3.44,3.44,0,0,0-2.63,1,4,4,0,0,0-1,2.82v5.3H89.44V5.07h1.38v2A3.43,3.43,0,0,1,92.32,5.53Z"/><path class="cls-1" d="M117,20.65H97.16V5.71a5.92,5.92,0,0,1,6-5.86H117a5.93,5.93,0,0,1,6,5.86v9.08A5.93,5.93,0,0,1,117,20.65Z"/><path class="cls-2" d="M108.19,6a3.88,3.88,0,0,1,1.12,3v6.49h-1.38V13.88a3.32,3.32,0,0,1-1.44,1.27,5,5,0,0,1-2.25.46,4.44,4.44,0,0,1-2.85-.84,2.65,2.65,0,0,1-1.06-2.21,2.64,2.64,0,0,1,1-2.14,4.88,4.88,0,0,1,3.14-.82h3.41V9a2.64,2.64,0,0,0-.78-2.06,3.24,3.24,0,0,0-2.26-.7,5.79,5.79,0,0,0-2,.33,4.84,4.84,0,0,0-1.61.9l-.65-1a5.88,5.88,0,0,1,1.95-1A7.94,7.94,0,0,1,105,5,4.57,4.57,0,0,1,108.19,6Zm-1.63,8a3.31,3.31,0,0,0,1.3-1.59V10.65H104.5c-1.83,0-2.75.63-2.75,1.88a1.69,1.69,0,0,0,.72,1.44,3.29,3.29,0,0,0,2,.53A3.91,3.91,0,0,0,106.56,14Z"/><path class="cls-2" d="M117.09,5.5a5.28,5.28,0,0,1,2.5-.54V6.34l-.35,0a3.47,3.47,0,0,0-2.65,1,4,4,0,0,0-1,2.85v5.33h-1.45V5h1.39V7.09A3.47,3.47,0,0,1,117.09,5.5Z"/></svg>